<svg id="visual" viewBox="0 0 900 600" width="900" height="600" xmlns="http://www.w3.org/2000/svg" xmlns:xlink="http://www.w3.org/1999/xlink" version="1.1"><rect x="0" y="0" width="900" height="600" fill="#24243a"></rect><defs><linearGradient id="grad1_0" x1="33.3%" y1="0%" x2="100%" y2="100%"><stop offset="20%" stop-color="#24243a" stop-opacity="1"></stop><stop offset="80%" stop-color="#24243a" stop-opacity="1"></stop></linearGradient></defs><defs><linearGradient id="grad2_0" x1="0%" y1="0%" x2="66.7%" y2="100%"><stop offset="20%" stop-color="#24243a" stop-opacity="1"></stop><stop offset="80%" stop-color="#24243a" stop-opacity="1"></stop></linearGradient></defs><g transform="translate(900, 0)"><path d="M0 189.3C-37.2 186.7 -74.5 184.2 -94.6 163.9C-114.8 143.7 -117.8 105.8 -130.8 75.5C-143.7 45.2 -166.5 22.6 -189.3 0L0 0Z" fill="#ec5a5a"></path></g><g transform="translate(0, 600)"><path d="M0 -189.3C39.9 -188.3 79.8 -187.2 94.6 -163.9C109.5 -140.6 99.3 -95 110.9 -64C122.4 -33 155.9 -16.5 189.3 0L0 0Z" fill="#ec5a5a"></path></g></svg>