<svg id="visual" viewBox="0 0 900 600" width="900" height="600" xmlns="http://www.w3.org/2000/svg" xmlns:xlink="http://www.w3.org/1999/xlink" version="1.1"><rect x="0" y="0" width="900" height="600" fill="#24243a"></rect><defs><linearGradient id="grad1_0" x1="33.3%" y1="100%" x2="100%" y2="0%"><stop offset="20%" stop-color="#24243a" stop-opacity="1"></stop><stop offset="80%" stop-color="#24243a" stop-opacity="1"></stop></linearGradient></defs><defs><linearGradient id="grad2_0" x1="0%" y1="100%" x2="66.7%" y2="0%"><stop offset="20%" stop-color="#24243a" stop-opacity="1"></stop><stop offset="80%" stop-color="#24243a" stop-opacity="1"></stop></linearGradient></defs><g transform="translate(900, 600)"><path d="M-189.3 0C-186.7 -37.2 -184.2 -74.5 -163.9 -94.6C-143.7 -114.8 -105.8 -117.8 -75.5 -130.8C-45.2 -143.7 -22.6 -166.5 0 -189.3L0 0Z" fill="#ec5a5a"></path></g><g transform="translate(0, 0)"><path d="M189.3 0C188.3 39.9 187.2 79.8 163.9 94.6C140.6 109.5 95 99.3 64 110.9C33 122.4 16.5 155.9 0 189.3L0 0Z" fill="#ec5a5a"></path></g></svg>